<mxfile host="app.diagrams.net" modified="2023-01-28T06:46:34.177Z" agent="5.0 (Windows NT 10.0; Win64; x64) AppleWebKit/537.36 (KHTML, like Gecko) Chrome/109.0.0.0 Safari/537.36" etag="1D4M_KjpIY0LWa5zwTf2" version="20.8.13" type="github">
  <diagram name="Страница 1" id="xR6QezIAfQtRVyQFzhz1">
    <mxGraphModel dx="1687" dy="869" grid="1" gridSize="10" guides="1" tooltips="1" connect="1" arrows="1" fold="1" page="1" pageScale="1" pageWidth="827" pageHeight="1169" math="0" shadow="0">
      <root>
        <mxCell id="0" />
        <mxCell id="1" parent="0" />
        <mxCell id="MefCaFTjjXVod8S6KdbM-3" value="Трудозатраты" style="text;html=1;strokeColor=none;fillColor=none;align=center;verticalAlign=middle;whiteSpace=wrap;rounded=0;container=0;" vertex="1" parent="1">
          <mxGeometry x="225.3125" y="150" width="89.375" height="82.33333333333333" as="geometry" />
        </mxCell>
        <mxCell id="MefCaFTjjXVod8S6KdbM-45" value="" style="group" vertex="1" connectable="0" parent="1">
          <mxGeometry x="30" y="221" width="350" height="519" as="geometry" />
        </mxCell>
        <mxCell id="MefCaFTjjXVod8S6KdbM-31" value="Пользователь" style="shape=umlActor;verticalLabelPosition=bottom;verticalAlign=top;html=1;outlineConnect=0;" vertex="1" parent="MefCaFTjjXVod8S6KdbM-45">
          <mxGeometry y="209" width="30" height="60" as="geometry" />
        </mxCell>
        <mxCell id="MefCaFTjjXVod8S6KdbM-2" value="" style="rounded=0;whiteSpace=wrap;html=1;container=0;" vertex="1" parent="MefCaFTjjXVod8S6KdbM-45">
          <mxGeometry x="130" width="220" height="519" as="geometry" />
        </mxCell>
        <mxCell id="MefCaFTjjXVod8S6KdbM-19" value="Ввод трудозатрат за период" style="ellipse;whiteSpace=wrap;html=1;container=0;" vertex="1" parent="MefCaFTjjXVod8S6KdbM-45">
          <mxGeometry x="180" y="11.329999999999984" width="120" height="76" as="geometry" />
        </mxCell>
        <mxCell id="MefCaFTjjXVod8S6KdbM-21" value="Сформировать отчет" style="ellipse;whiteSpace=wrap;html=1;container=0;" vertex="1" parent="MefCaFTjjXVod8S6KdbM-45">
          <mxGeometry x="180" y="180" width="120" height="76" as="geometry" />
        </mxCell>
        <mxCell id="MefCaFTjjXVod8S6KdbM-22" value="Отправить руководителю" style="ellipse;whiteSpace=wrap;html=1;container=0;" vertex="1" parent="MefCaFTjjXVod8S6KdbM-45">
          <mxGeometry x="180" y="259" width="120" height="76" as="geometry" />
        </mxCell>
        <mxCell id="MefCaFTjjXVod8S6KdbM-29" value="Ввод трудозатрат с продолжительностью" style="ellipse;whiteSpace=wrap;html=1;container=0;" vertex="1" parent="MefCaFTjjXVod8S6KdbM-45">
          <mxGeometry x="180" y="100" width="120" height="76" as="geometry" />
        </mxCell>
        <mxCell id="MefCaFTjjXVod8S6KdbM-41" value="Редактировать" style="ellipse;whiteSpace=wrap;html=1;container=0;" vertex="1" parent="MefCaFTjjXVod8S6KdbM-45">
          <mxGeometry x="180" y="346" width="120" height="76" as="geometry" />
        </mxCell>
        <mxCell id="MefCaFTjjXVod8S6KdbM-42" value="Удалить" style="ellipse;whiteSpace=wrap;html=1;container=0;" vertex="1" parent="MefCaFTjjXVod8S6KdbM-45">
          <mxGeometry x="180" y="429" width="120" height="76" as="geometry" />
        </mxCell>
        <mxCell id="MefCaFTjjXVod8S6KdbM-37" value="" style="endArrow=classic;html=1;rounded=0;entryX=0;entryY=0.5;entryDx=0;entryDy=0;exitX=1;exitY=0.3333333333333333;exitDx=0;exitDy=0;exitPerimeter=0;" edge="1" parent="MefCaFTjjXVod8S6KdbM-45" source="MefCaFTjjXVod8S6KdbM-31" target="MefCaFTjjXVod8S6KdbM-19">
          <mxGeometry width="50" height="50" relative="1" as="geometry">
            <mxPoint x="30" y="149" as="sourcePoint" />
            <mxPoint x="190.2041654424661" y="151.13216276253752" as="targetPoint" />
          </mxGeometry>
        </mxCell>
        <mxCell id="MefCaFTjjXVod8S6KdbM-35" value="" style="endArrow=classic;html=1;rounded=0;exitX=1;exitY=0.3333333333333333;exitDx=0;exitDy=0;exitPerimeter=0;" edge="1" parent="MefCaFTjjXVod8S6KdbM-45" source="MefCaFTjjXVod8S6KdbM-31" target="MefCaFTjjXVod8S6KdbM-29">
          <mxGeometry width="50" height="50" relative="1" as="geometry">
            <mxPoint x="30" y="149" as="sourcePoint" />
            <mxPoint x="630" y="168" as="targetPoint" />
          </mxGeometry>
        </mxCell>
        <mxCell id="MefCaFTjjXVod8S6KdbM-36" value="" style="endArrow=classic;html=1;rounded=0;entryX=0;entryY=0.5;entryDx=0;entryDy=0;exitX=1;exitY=0.3333333333333333;exitDx=0;exitDy=0;exitPerimeter=0;" edge="1" parent="MefCaFTjjXVod8S6KdbM-45" source="MefCaFTjjXVod8S6KdbM-31" target="MefCaFTjjXVod8S6KdbM-21">
          <mxGeometry width="50" height="50" relative="1" as="geometry">
            <mxPoint x="30" y="149" as="sourcePoint" />
            <mxPoint x="160" y="328" as="targetPoint" />
          </mxGeometry>
        </mxCell>
        <mxCell id="MefCaFTjjXVod8S6KdbM-34" value="" style="endArrow=classic;html=1;rounded=0;exitX=1;exitY=0.3333333333333333;exitDx=0;exitDy=0;exitPerimeter=0;entryX=0;entryY=0.5;entryDx=0;entryDy=0;" edge="1" parent="MefCaFTjjXVod8S6KdbM-45" source="MefCaFTjjXVod8S6KdbM-31" target="MefCaFTjjXVod8S6KdbM-22">
          <mxGeometry width="50" height="50" relative="1" as="geometry">
            <mxPoint x="30" y="319" as="sourcePoint" />
            <mxPoint x="80" y="269" as="targetPoint" />
          </mxGeometry>
        </mxCell>
        <mxCell id="MefCaFTjjXVod8S6KdbM-43" value="" style="endArrow=classic;html=1;rounded=0;exitX=1;exitY=0.3333333333333333;exitDx=0;exitDy=0;exitPerimeter=0;entryX=0;entryY=0.5;entryDx=0;entryDy=0;" edge="1" parent="MefCaFTjjXVod8S6KdbM-45" source="MefCaFTjjXVod8S6KdbM-31" target="MefCaFTjjXVod8S6KdbM-41">
          <mxGeometry width="50" height="50" relative="1" as="geometry">
            <mxPoint x="40" y="159" as="sourcePoint" />
            <mxPoint x="190" y="307" as="targetPoint" />
          </mxGeometry>
        </mxCell>
        <mxCell id="MefCaFTjjXVod8S6KdbM-44" value="" style="endArrow=classic;html=1;rounded=0;exitX=1;exitY=0.3333333333333333;exitDx=0;exitDy=0;exitPerimeter=0;entryX=0;entryY=0.5;entryDx=0;entryDy=0;" edge="1" parent="MefCaFTjjXVod8S6KdbM-45" source="MefCaFTjjXVod8S6KdbM-31" target="MefCaFTjjXVod8S6KdbM-42">
          <mxGeometry width="50" height="50" relative="1" as="geometry">
            <mxPoint x="50" y="169" as="sourcePoint" />
            <mxPoint x="200" y="317" as="targetPoint" />
          </mxGeometry>
        </mxCell>
        <mxCell id="MefCaFTjjXVod8S6KdbM-55" value="" style="group" vertex="1" connectable="0" parent="1">
          <mxGeometry x="510" y="400" width="120" height="111.17000000000002" as="geometry" />
        </mxCell>
        <mxCell id="MefCaFTjjXVod8S6KdbM-40" value="" style="group" vertex="1" connectable="0" parent="MefCaFTjjXVod8S6KdbM-55">
          <mxGeometry width="120" height="61.17" as="geometry" />
        </mxCell>
        <mxCell id="MefCaFTjjXVod8S6KdbM-39" value="Локальная БД" style="text;html=1;strokeColor=none;fillColor=none;align=center;verticalAlign=middle;whiteSpace=wrap;rounded=0;container=0;" vertex="1" parent="MefCaFTjjXVod8S6KdbM-40">
          <mxGeometry x="15.3125" width="89.375" height="45.30295943150132" as="geometry" />
        </mxCell>
        <mxCell id="MefCaFTjjXVod8S6KdbM-38" value="" style="rounded=0;whiteSpace=wrap;html=1;" vertex="1" parent="MefCaFTjjXVod8S6KdbM-55">
          <mxGeometry y="50" width="120" height="61.17" as="geometry" />
        </mxCell>
        <mxCell id="MefCaFTjjXVod8S6KdbM-63" value="" style="group" vertex="1" connectable="0" parent="1">
          <mxGeometry x="760" y="320" width="400" height="475.55999999999995" as="geometry" />
        </mxCell>
        <mxCell id="MefCaFTjjXVod8S6KdbM-6" value="" style="group" vertex="1" connectable="0" parent="MefCaFTjjXVod8S6KdbM-63">
          <mxGeometry width="240" height="475.56" as="geometry" />
        </mxCell>
        <mxCell id="MefCaFTjjXVod8S6KdbM-7" value="" style="rounded=0;whiteSpace=wrap;html=1;" vertex="1" parent="MefCaFTjjXVod8S6KdbM-6">
          <mxGeometry y="43.232727272727274" width="240" height="432.32727272727277" as="geometry" />
        </mxCell>
        <mxCell id="MefCaFTjjXVod8S6KdbM-8" value="Мониторинг активности пользователя" style="text;html=1;strokeColor=none;fillColor=none;align=center;verticalAlign=middle;whiteSpace=wrap;rounded=0;" vertex="1" parent="MefCaFTjjXVod8S6KdbM-6">
          <mxGeometry x="60" y="-37.22818181818182" width="120" height="111.68454545454547" as="geometry" />
        </mxCell>
        <mxCell id="MefCaFTjjXVod8S6KdbM-23" value="Снимок экрана" style="ellipse;whiteSpace=wrap;html=1;" vertex="1" parent="MefCaFTjjXVod8S6KdbM-6">
          <mxGeometry x="60" y="61.400000000000034" width="120" height="76" as="geometry" />
        </mxCell>
        <mxCell id="MefCaFTjjXVod8S6KdbM-24" value="Отследить документ" style="ellipse;whiteSpace=wrap;html=1;" vertex="1" parent="MefCaFTjjXVod8S6KdbM-6">
          <mxGeometry x="60" y="141.40000000000003" width="120" height="76" as="geometry" />
        </mxCell>
        <mxCell id="MefCaFTjjXVod8S6KdbM-25" value="Отследить операцию" style="ellipse;whiteSpace=wrap;html=1;" vertex="1" parent="MefCaFTjjXVod8S6KdbM-6">
          <mxGeometry x="60" y="221.40000000000003" width="120" height="76" as="geometry" />
        </mxCell>
        <mxCell id="MefCaFTjjXVod8S6KdbM-26" value="Отследить задачи" style="ellipse;whiteSpace=wrap;html=1;" vertex="1" parent="MefCaFTjjXVod8S6KdbM-6">
          <mxGeometry x="60" y="301.40000000000003" width="120" height="76" as="geometry" />
        </mxCell>
        <mxCell id="MefCaFTjjXVod8S6KdbM-27" value="Отследить посещенные сайты" style="ellipse;whiteSpace=wrap;html=1;" vertex="1" parent="MefCaFTjjXVod8S6KdbM-6">
          <mxGeometry x="60" y="381.40000000000003" width="120" height="76" as="geometry" />
        </mxCell>
        <mxCell id="MefCaFTjjXVod8S6KdbM-56" value="Система" style="shape=umlActor;verticalLabelPosition=bottom;verticalAlign=top;html=1;outlineConnect=0;" vertex="1" parent="MefCaFTjjXVod8S6KdbM-63">
          <mxGeometry x="370" y="192.76999999999998" width="30" height="60" as="geometry" />
        </mxCell>
        <mxCell id="MefCaFTjjXVod8S6KdbM-58" value="" style="endArrow=classic;html=1;rounded=0;exitX=0;exitY=0.3333333333333333;exitDx=0;exitDy=0;exitPerimeter=0;entryX=1;entryY=0.5;entryDx=0;entryDy=0;" edge="1" parent="MefCaFTjjXVod8S6KdbM-63" source="MefCaFTjjXVod8S6KdbM-56" target="MefCaFTjjXVod8S6KdbM-27">
          <mxGeometry width="50" height="50" relative="1" as="geometry">
            <mxPoint x="270" y="237.55999999999995" as="sourcePoint" />
            <mxPoint x="420" y="475.55999999999995" as="targetPoint" />
          </mxGeometry>
        </mxCell>
        <mxCell id="MefCaFTjjXVod8S6KdbM-59" value="" style="endArrow=classic;html=1;rounded=0;exitX=0;exitY=0.3333333333333333;exitDx=0;exitDy=0;exitPerimeter=0;entryX=1;entryY=0.5;entryDx=0;entryDy=0;" edge="1" parent="MefCaFTjjXVod8S6KdbM-63" source="MefCaFTjjXVod8S6KdbM-56" target="MefCaFTjjXVod8S6KdbM-26">
          <mxGeometry width="50" height="50" relative="1" as="geometry">
            <mxPoint x="380" y="222.76999999999998" as="sourcePoint" />
            <mxPoint x="190" y="429.4000000000001" as="targetPoint" />
          </mxGeometry>
        </mxCell>
        <mxCell id="MefCaFTjjXVod8S6KdbM-60" value="" style="endArrow=classic;html=1;rounded=0;exitX=0;exitY=0.3333333333333333;exitDx=0;exitDy=0;exitPerimeter=0;entryX=1;entryY=0.5;entryDx=0;entryDy=0;" edge="1" parent="MefCaFTjjXVod8S6KdbM-63" source="MefCaFTjjXVod8S6KdbM-56" target="MefCaFTjjXVod8S6KdbM-25">
          <mxGeometry width="50" height="50" relative="1" as="geometry">
            <mxPoint x="390" y="232.76999999999998" as="sourcePoint" />
            <mxPoint x="200" y="439.4000000000001" as="targetPoint" />
          </mxGeometry>
        </mxCell>
        <mxCell id="MefCaFTjjXVod8S6KdbM-61" value="" style="endArrow=classic;html=1;rounded=0;exitX=0;exitY=0.3333333333333333;exitDx=0;exitDy=0;exitPerimeter=0;entryX=1;entryY=0.5;entryDx=0;entryDy=0;" edge="1" parent="MefCaFTjjXVod8S6KdbM-63" source="MefCaFTjjXVod8S6KdbM-56" target="MefCaFTjjXVod8S6KdbM-24">
          <mxGeometry width="50" height="50" relative="1" as="geometry">
            <mxPoint x="400" y="242.76999999999998" as="sourcePoint" />
            <mxPoint x="210" y="449.4000000000001" as="targetPoint" />
          </mxGeometry>
        </mxCell>
        <mxCell id="MefCaFTjjXVod8S6KdbM-62" value="" style="endArrow=classic;html=1;rounded=0;exitX=0;exitY=0.3333333333333333;exitDx=0;exitDy=0;exitPerimeter=0;entryX=1;entryY=0.5;entryDx=0;entryDy=0;" edge="1" parent="MefCaFTjjXVod8S6KdbM-63" source="MefCaFTjjXVod8S6KdbM-56" target="MefCaFTjjXVod8S6KdbM-23">
          <mxGeometry width="50" height="50" relative="1" as="geometry">
            <mxPoint x="410" y="252.76999999999998" as="sourcePoint" />
            <mxPoint x="220" y="459.4000000000001" as="targetPoint" />
          </mxGeometry>
        </mxCell>
        <mxCell id="MefCaFTjjXVod8S6KdbM-64" value="Руководитель" style="shape=umlActor;verticalLabelPosition=bottom;verticalAlign=top;html=1;outlineConnect=0;" vertex="1" parent="1">
          <mxGeometry x="555" y="1090" width="30" height="60" as="geometry" />
        </mxCell>
        <mxCell id="MefCaFTjjXVod8S6KdbM-67" value="" style="group" vertex="1" connectable="0" parent="1">
          <mxGeometry x="280" y="860" width="580" height="190" as="geometry" />
        </mxCell>
        <mxCell id="MefCaFTjjXVod8S6KdbM-65" value="" style="rounded=0;whiteSpace=wrap;html=1;" vertex="1" parent="MefCaFTjjXVod8S6KdbM-67">
          <mxGeometry y="70" width="580" height="126.67" as="geometry" />
        </mxCell>
        <mxCell id="MefCaFTjjXVod8S6KdbM-66" value="Администрирование" style="text;html=1;strokeColor=none;fillColor=none;align=center;verticalAlign=middle;whiteSpace=wrap;rounded=0;" vertex="1" parent="MefCaFTjjXVod8S6KdbM-67">
          <mxGeometry x="182.5" y="6.67" width="215" height="63.33333333333333" as="geometry" />
        </mxCell>
        <mxCell id="MefCaFTjjXVod8S6KdbM-68" value="Редактировать трудозатраты" style="ellipse;whiteSpace=wrap;html=1;" vertex="1" parent="MefCaFTjjXVod8S6KdbM-67">
          <mxGeometry x="30" y="88.67000000000007" width="120" height="76" as="geometry" />
        </mxCell>
        <mxCell id="MefCaFTjjXVod8S6KdbM-69" value="Согласовать трудозатрату" style="ellipse;whiteSpace=wrap;html=1;" vertex="1" parent="MefCaFTjjXVod8S6KdbM-67">
          <mxGeometry x="160" y="88.67000000000007" width="120" height="76" as="geometry" />
        </mxCell>
        <mxCell id="MefCaFTjjXVod8S6KdbM-70" value="Настройка системы" style="ellipse;whiteSpace=wrap;html=1;" vertex="1" parent="MefCaFTjjXVod8S6KdbM-67">
          <mxGeometry x="290" y="88.67000000000007" width="120" height="76" as="geometry" />
        </mxCell>
        <mxCell id="MefCaFTjjXVod8S6KdbM-71" value="Уведомления системы" style="ellipse;whiteSpace=wrap;html=1;" vertex="1" parent="MefCaFTjjXVod8S6KdbM-67">
          <mxGeometry x="420" y="88.67000000000007" width="120" height="76" as="geometry" />
        </mxCell>
        <mxCell id="MefCaFTjjXVod8S6KdbM-72" value="" style="endArrow=classic;html=1;rounded=0;exitX=0;exitY=0.3333333333333333;exitDx=0;exitDy=0;exitPerimeter=0;entryX=0.5;entryY=1;entryDx=0;entryDy=0;" edge="1" parent="1" source="MefCaFTjjXVod8S6KdbM-64" target="MefCaFTjjXVod8S6KdbM-68">
          <mxGeometry width="50" height="50" relative="1" as="geometry">
            <mxPoint x="144.69" y="960" as="sourcePoint" />
            <mxPoint x="294.69" y="1198" as="targetPoint" />
          </mxGeometry>
        </mxCell>
        <mxCell id="MefCaFTjjXVod8S6KdbM-73" value="" style="endArrow=classic;html=1;rounded=0;exitX=1;exitY=0.3333333333333333;exitDx=0;exitDy=0;exitPerimeter=0;entryX=0.5;entryY=1;entryDx=0;entryDy=0;" edge="1" parent="1" source="MefCaFTjjXVod8S6KdbM-64" target="MefCaFTjjXVod8S6KdbM-71">
          <mxGeometry width="50" height="50" relative="1" as="geometry">
            <mxPoint x="565" y="1120" as="sourcePoint" />
            <mxPoint x="380" y="1034.67" as="targetPoint" />
          </mxGeometry>
        </mxCell>
        <mxCell id="MefCaFTjjXVod8S6KdbM-74" value="" style="endArrow=classic;html=1;rounded=0;exitX=1;exitY=0.3333333333333333;exitDx=0;exitDy=0;exitPerimeter=0;entryX=0.5;entryY=1;entryDx=0;entryDy=0;" edge="1" parent="1" source="MefCaFTjjXVod8S6KdbM-64" target="MefCaFTjjXVod8S6KdbM-70">
          <mxGeometry width="50" height="50" relative="1" as="geometry">
            <mxPoint x="595" y="1120" as="sourcePoint" />
            <mxPoint x="770" y="1034.67" as="targetPoint" />
          </mxGeometry>
        </mxCell>
        <mxCell id="MefCaFTjjXVod8S6KdbM-75" value="" style="endArrow=classic;html=1;rounded=0;exitX=0;exitY=0.3333333333333333;exitDx=0;exitDy=0;exitPerimeter=0;entryX=0.5;entryY=1;entryDx=0;entryDy=0;" edge="1" parent="1" source="MefCaFTjjXVod8S6KdbM-64" target="MefCaFTjjXVod8S6KdbM-69">
          <mxGeometry width="50" height="50" relative="1" as="geometry">
            <mxPoint x="595" y="1120" as="sourcePoint" />
            <mxPoint x="640" y="1034.67" as="targetPoint" />
          </mxGeometry>
        </mxCell>
        <mxCell id="MefCaFTjjXVod8S6KdbM-76" value="" style="group" vertex="1" connectable="0" parent="1">
          <mxGeometry x="510" y="529" width="120" height="150" as="geometry" />
        </mxCell>
        <mxCell id="MefCaFTjjXVod8S6KdbM-77" value="" style="group" vertex="1" connectable="0" parent="MefCaFTjjXVod8S6KdbM-76">
          <mxGeometry y="12.4" width="120" height="61.17" as="geometry" />
        </mxCell>
        <mxCell id="MefCaFTjjXVod8S6KdbM-78" value="Серверная БД" style="text;html=1;strokeColor=none;fillColor=none;align=center;verticalAlign=middle;whiteSpace=wrap;rounded=0;container=0;" vertex="1" parent="MefCaFTjjXVod8S6KdbM-77">
          <mxGeometry x="15.3125" width="89.375" height="45.30295943150132" as="geometry" />
        </mxCell>
        <mxCell id="MefCaFTjjXVod8S6KdbM-79" value="" style="rounded=0;whiteSpace=wrap;html=1;" vertex="1" parent="MefCaFTjjXVod8S6KdbM-76">
          <mxGeometry y="50" width="120" height="100" as="geometry" />
        </mxCell>
        <mxCell id="MefCaFTjjXVod8S6KdbM-86" value="" style="endArrow=block;dashed=1;endFill=0;endSize=12;html=1;rounded=0;" edge="1" parent="1">
          <mxGeometry width="160" relative="1" as="geometry">
            <mxPoint x="320" y="90" as="sourcePoint" />
            <mxPoint x="480" y="90" as="targetPoint" />
          </mxGeometry>
        </mxCell>
        <mxCell id="MefCaFTjjXVod8S6KdbM-87" value="Use" style="endArrow=open;endSize=12;dashed=1;html=1;rounded=0;exitX=1;exitY=0.5;exitDx=0;exitDy=0;entryX=0;entryY=0.5;entryDx=0;entryDy=0;" edge="1" parent="1" source="MefCaFTjjXVod8S6KdbM-2" target="MefCaFTjjXVod8S6KdbM-38">
          <mxGeometry width="160" relative="1" as="geometry">
            <mxPoint x="395" y="380" as="sourcePoint" />
            <mxPoint x="555" y="380" as="targetPoint" />
          </mxGeometry>
        </mxCell>
        <mxCell id="MefCaFTjjXVod8S6KdbM-88" value="Use" style="endArrow=open;endSize=12;dashed=1;html=1;rounded=0;exitX=-0.012;exitY=0.614;exitDx=0;exitDy=0;entryX=1;entryY=0.5;entryDx=0;entryDy=0;exitPerimeter=0;" edge="1" parent="1" source="MefCaFTjjXVod8S6KdbM-7" target="MefCaFTjjXVod8S6KdbM-79">
          <mxGeometry width="160" relative="1" as="geometry">
            <mxPoint x="390" y="490.5" as="sourcePoint" />
            <mxPoint x="519.9999999999998" y="490.58500000000004" as="targetPoint" />
          </mxGeometry>
        </mxCell>
        <mxCell id="MefCaFTjjXVod8S6KdbM-89" value="Use" style="endArrow=open;endSize=12;dashed=1;html=1;rounded=0;entryX=1;entryY=1;entryDx=0;entryDy=0;exitX=0.779;exitY=1.037;exitDx=0;exitDy=0;exitPerimeter=0;" edge="1" parent="1" source="MefCaFTjjXVod8S6KdbM-66" target="MefCaFTjjXVod8S6KdbM-79">
          <mxGeometry width="160" relative="1" as="geometry">
            <mxPoint x="690" y="890" as="sourcePoint" />
            <mxPoint x="529.9999999999998" y="500.58500000000004" as="targetPoint" />
          </mxGeometry>
        </mxCell>
        <mxCell id="MefCaFTjjXVod8S6KdbM-90" value="Use" style="endArrow=open;endSize=12;dashed=1;html=1;rounded=0;exitX=0.75;exitY=0;exitDx=0;exitDy=0;entryX=0.75;entryY=1;entryDx=0;entryDy=0;" edge="1" parent="1" source="MefCaFTjjXVod8S6KdbM-79" target="MefCaFTjjXVod8S6KdbM-38">
          <mxGeometry width="160" relative="1" as="geometry">
            <mxPoint x="410" y="510.5" as="sourcePoint" />
            <mxPoint x="539.9999999999998" y="510.58500000000004" as="targetPoint" />
          </mxGeometry>
        </mxCell>
      </root>
    </mxGraphModel>
  </diagram>
</mxfile>
